<?xml version="1.0" encoding="utf-8"?>
<!-- Generator: Adobe Illustrator 22.1.0, SVG Export Plug-In . SVG Version: 6.00 Build 0)  -->
<svg version="1.1" id="Layer_1" xmlns="http://www.w3.org/2000/svg" xmlns:xlink="http://www.w3.org/1999/xlink" x="0px" y="0px"
	 viewBox="0 0 1080 1920" style="enable-background:new 0 0 1080 1920;" xml:space="preserve">
<style type="text/css">
	.st0{fill:none;}
	.st1{opacity:0.2;fill:url(#Apotekerku);}
</style>
<pattern  y="1920" width="165" height="176.9" patternUnits="userSpaceOnUse" id="Apotekerku" viewBox="67.5 -191.1 165 176.9" style="overflow:visible;">
	<g>
		<rect x="67.5" y="-191.1" class="st0" width="165" height="176.9"/>
		<text transform="matrix(1 0 0 1 165.0234 -6.7622)"><tspan x="0" y="0" style="fill:#FFFFFF; font-family:'Somatic-Rounded'; font-size:25.5151px;">Apoteker</tspan><tspan x="108.9" y="0" style="fill:#FFEB3B; font-family:'Somatic-Rounded'; font-size:25.5151px;">ku</tspan></text>
		<text transform="matrix(1 0 0 1 0 -6.7622)"><tspan x="0" y="0" style="fill:#FFFFFF; font-family:'Somatic-Rounded'; font-size:25.5151px;">Apoteker</tspan><tspan x="108.9" y="0" style="fill:#FFEB3B; font-family:'Somatic-Rounded'; font-size:25.5151px;">ku</tspan></text>
		<text transform="matrix(1 0 0 1 82.5117 -95.2114)"><tspan x="0" y="0" style="fill:#FFFFFF; font-family:'Somatic-Rounded'; font-size:25.5151px;">Apoteker</tspan><tspan x="108.9" y="0" style="fill:#FFEB3B; font-family:'Somatic-Rounded'; font-size:25.5151px;">ku</tspan></text>
		<text transform="matrix(1 0 0 1 165.0234 -183.6606)"><tspan x="0" y="0" style="fill:#FFFFFF; font-family:'Somatic-Rounded'; font-size:25.5151px;">Apoteker</tspan><tspan x="108.9" y="0" style="fill:#FFEB3B; font-family:'Somatic-Rounded'; font-size:25.5151px;">ku</tspan></text>
		<text transform="matrix(1 0 0 1 0 -183.6606)"><tspan x="0" y="0" style="fill:#FFFFFF; font-family:'Somatic-Rounded'; font-size:25.5151px;">Apoteker</tspan><tspan x="108.9" y="0" style="fill:#FFEB3B; font-family:'Somatic-Rounded'; font-size:25.5151px;">ku</tspan></text>
	</g>
</pattern>
<rect class="st1" width="1080" height="1920"/>
</svg>
